<?xml version="1.0"?>
<svg xmlns:rdf="http://www.w3.org/1999/02/22-rdf-syntax-ns#" xmlns="http://www.w3.org/2000/svg" xmlns:cc="http://creativecommons.org/ns#" xmlns:dc="http://purl.org/dc/elements/1.1/" xmlns:svg="http://www.w3.org/2000/svg" id="svg2" xml:space="preserve" viewBox="0 0 159.6 241.87" version="1.1">
  <defs id="defs6">
    <clipPath id="clipPath274" clipPathUnits="userSpaceOnUse">
      <path id="path276" d="m198 566.78s0.161 1.931-1.448 2.574c-2.309 0.924-3.012 1.771-3.012 6.346v28.394s-0.161 2.368-2.851 2.368h-9.518s-2.851 0-2.69-2.69 0-28.716 0-28.716 0.733-4.974-2.092-5.863c-2.047-0.643-1.403-1.402-1.564-2.85-0.161-1.449 23.175 0.437 23.175 0.437"/>
    </clipPath>
    <clipPath id="clipPath300" clipPathUnits="userSpaceOnUse">
      <path id="path302" d="m180.48 510.48 0.006 1.931h13.651l0.006-1.932-1.777-3.172h-10.276l-1.61 3.173"/>
    </clipPath>
    <clipPath id="clipPath322" clipPathUnits="userSpaceOnUse">
      <path id="path324" d="m204.09 514.37-1.236 1.483 10.457 8.775 1.246-1.476 0.678-3.572-7.872-6.606-3.273 1.396"/>
    </clipPath>
    <clipPath id="clipPath396" clipPathUnits="userSpaceOnUse">
      <path id="path398" d="m160.98 466.54-1.689-1.237h-4.657v-1.936h4.41l1.983-1.601-0.047 4.774"/>
    </clipPath>
    <clipPath id="clipPath410" clipPathUnits="userSpaceOnUse">
      <path id="path412" d="m160.98 444.24-1.689-1.237h-4.657v-1.936h4.41l1.983-1.602-0.047 4.775"/>
    </clipPath>
    <clipPath id="clipPath432" clipPathUnits="userSpaceOnUse">
      <path id="path434" d="m190.1 460.64h11.843v-4.556h-11.843v4.556z"/>
    </clipPath>
    <clipPath id="clipPath448" clipPathUnits="userSpaceOnUse">
      <path id="path450" d="m168.03 465.51h11.843v-4.555h-11.843v4.555z"/>
    </clipPath>
  </defs>
  <g id="g12" transform="matrix(1.25 0 0 -1.25 -119.61 760.17)">
    <path id="path256" d="m180.21 591.61h2.6938c1.3082 0 2.368-0.46494 2.368-1.0382s-1.0599-1.0382-2.368-1.0382h-2.6938c-1.3082 0-2.3688 0.46494-2.3688 1.0382s1.0607 1.0382 2.3688 1.0382z" stroke="#231f20" stroke-miterlimit="3.864" stroke-width=".78906" fill="#fff"/>
    <path id="path258" d="m208 505.68 3.2854 2.7571c0.31495 0.26413 0.7149 0.30496 0.89321 0.0925 0.17831-0.21247 0.0683-0.59909-0.24663-0.86322l-3.2854-2.7563c-0.31413-0.26413-0.71407-0.30579-0.89238-0.0933-0.17831 0.2133-0.0683 0.59909 0.2458 0.86322z" fill-rule="evenodd" stroke="#231f20" stroke-miterlimit="3.864" stroke-width=".49577" fill="#fff"/>
    <path id="path260" d="m206.71 506.11 4.3802 3.6754c0.41995 0.35246 1.1907 0.12415 1.1907 0.12415 0.2383-0.28329 0.0908-0.79906-0.32829-1.1507l-4.3803-3.6762c-0.41994-0.35162-0.95237-0.40745-1.1907-0.12332-0.2383 0.2833-0.0908 0.79906 0.32829 1.1507z" stroke="#231f20" stroke-miterlimit="3.864" stroke-width=".66075" fill="#fff"/>
    <path id="path262" d="m192.35 440.46-16.856 16.853c-0.25746 0.25747-0.67657 0.25747-0.93404 0l-1.344-1.344c-0.25746-0.25747-0.25746-0.67658 0-0.93405l16.855-16.853c0.2583-0.2583 0.67658-0.2583 0.93488 0l1.344 1.3432c0.25747 0.2583 0.25747 0.67658 0 0.93488z" stroke="#231f20" stroke-miterlimit="3.864" stroke-width=".66075" fill="none"/>
    <path id="path264" d="m148.48 449.29h19.674v-4.4827h-19.674v4.4827z" stroke="#231f20" stroke-miterlimit="3.864" stroke-width=".66075" fill="#fff"/>
    <path id="path266" d="m168.15 449.29 15.996-0.66074s1.2582-0.87905 1.2065-1.6864c-0.0475-0.74156-1.2065-1.4748-1.2065-1.4748l-15.996-0.66075v4.4827z" stroke="#231f20" stroke-miterlimit="3.864" stroke-width=".66075" fill="#fff"/>
    <path id="path268" d="m191.58 557.54s0.13415 1.609-1.2065 2.1447c-1.9239 0.7699-2.5097 1.4756-2.5097 5.2876v23.659s-0.13415 1.9731-2.3755 1.9731h-7.9306s-2.3755 0-2.2414-2.2414c0.13415-2.2414 0-23.927 0-23.927s0.61075-4.1444-1.7431-4.8852c-1.7056-0.53576-1.169-1.1682-1.3032-2.3747-0.13415-1.2073 19.31 0.36412 19.31 0.36412" fill="#fff"/>
    <g id="g270" transform="matrix(.83322 0 0 .83322 26.606 85.288)">
      <g id="g272" clip-path="url(#clipPath274)">
        <path id="path278" d="m177.51 604.1h16.507" stroke="#231f20" stroke-linecap="round" stroke-miterlimit="3.864" stroke-width=".793" fill="none"/>
      </g>
    </g>
    <path id="path280" d="m191.58 557.54s0.13415 1.609-1.2065 2.1447c-1.9239 0.7699-2.5097 1.4756-2.5097 5.2876v23.659s-0.13415 1.9731-2.3755 1.9731h-7.9306s-2.3755 0-2.2414-2.2414c0.13415-2.2414 0-23.927 0-23.927s0.61075-4.1444-1.7431-4.8852c-1.7056-0.53576-1.169-1.1682-1.3032-2.3747-0.13415-1.2073 19.31 0.36412 19.31 0.36412zm-46.086-125h-29.904l-1.8198-1.4423h-7.1057v10.162l7.5182 2.0614s4.0503 1.6131 4.4627 3.8445c0.41245 2.2314 1.649 7.9664 3.8803 11.811m55.702 65.63h8.8313v-6.9924h-8.8313v6.9924z" stroke="#231f20" stroke-miterlimit="3.864" stroke-width=".66075" fill="none"/>
    <path id="path282" d="m191.86 557.4h-45.185s-33.882-32.452-31.27-79.308c1.4606-26.192 23.339-36.524 23.339-36.524s5.5501-0.7499 5.5501-8.9246h51.202l2.103-1.5381h12.278v12.166h-47.341s-6.7483-0.0333-12.278 5.9842c-5.5309 6.0175-3.5837 36.314-3.5837 36.314h-10.574s-7.2682-0.73074-4.8344 7.4432c2.4347 8.1748 5.8084 27.166 18.296 27.166h42.298v37.22z" stroke="#231f20" stroke-miterlimit="3.864" stroke-width=".66075" fill="#fff"/>
    <path id="path284" d="m159.05 559.29h12.413v-1.609h-12.413v1.609z" fill="#231f20"/>
    <path id="path286" d="m177.22 515.92 0.13415-1.7048h0.80406l0.2683 0.67074h8.5005l0.26913-0.67074h0.80407l0.13414 1.7048h-10.914z" stroke="#231f20" stroke-miterlimit="3.864" stroke-width=".66075" fill="#fff"/>
    <path id="path288" d="m177.22 515.86 0.46411 1.7048h9.9854l0.46493-1.7048h-10.914z" stroke="#231f20" stroke-miterlimit="3.864" stroke-width=".66075" fill="#fff"/>
    <path id="path290" d="m174.51 557.41v-37.241m-1.3215 37.241v-37.241" stroke="#231f20" stroke-miterlimit="3.864" stroke-width=".66075" fill="none"/>
    <path id="path292" d="m177.69 513.81h9.6354v-1.5706h-9.6354v1.5706z" stroke="#231f20" stroke-miterlimit="3.864" stroke-width=".66075" fill="#231f20"/>
    <path id="path294" d="m176.98 510.63 0.005 1.609h11.374l0.005-1.6098-1.4806-2.643h-8.5622l-1.3415 2.6438" fill="#fff"/>
    <g id="g296" transform="matrix(.83322 0 0 .83322 26.606 85.288)">
      <g id="g298" clip-path="url(#clipPath300)">
        <path id="path304" d="m194.04 510.48h-13.675" stroke="#231f20" stroke-miterlimit="3.864" stroke-width=".793" fill="none"/>
      </g>
    </g>
    <path id="path306" d="m176.98 510.63 0.005 1.609h11.374l0.005-1.6098-1.4806-2.643h-8.5622l-1.3415 2.6438z" stroke="#231f20" stroke-miterlimit="3.864" stroke-width=".66075" fill="none"/>
    <path id="path308" d="m180.43 500.23h4.2886c0.41078 0 0.74323-0.22497 0.74323-0.50327 0-0.27746-0.33245-0.50243-0.74323-0.50243h-4.2886c-0.41078 0-0.74407 0.22497-0.74407 0.50243 0 0.2783 0.33329 0.50327 0.74407 0.50327z" fill-rule="evenodd" stroke="#231f20" stroke-miterlimit="3.864" stroke-width=".49577" fill="#fff"/>
    <path id="path310" d="m179.72 501.39h5.7184c0.54743 0 0.99071-0.67074 0.99071-0.67074 0-0.36995-0.44328-0.67075-0.99071-0.67075h-5.7184c-0.54743 0-0.99153 0.3008-0.99153 0.67075s0.4441 0.67074 0.99153 0.67074z" fill-rule="evenodd" stroke="#231f20" stroke-miterlimit="3.864" stroke-width=".66075" fill="#fff"/>
    <path id="path312" d="m178.23 507.99h8.563v-7.1266h-8.563v7.1266z" stroke="#231f20" stroke-miterlimit="3.864" stroke-width=".66075" fill="#fff"/>
    <path id="path314" d="m195.03 516.64 7.3799 6.1934 1.0099-1.2032-7.3799-6.1934-1.0099 1.2032z" stroke="#231f20" stroke-miterlimit="3.864" stroke-width=".66075" fill="#231f20"/>
    <path id="path316" d="m196.66 513.87-1.0299 1.2357 8.713 7.3115 1.0382-1.2298 0.56492-2.9763-6.5591-5.5043-2.7271 1.1632" fill="#fff"/>
    <g id="g318" transform="matrix(.83322 0 0 .83322 26.606 85.288)">
      <g id="g320" clip-path="url(#clipPath322)">
        <path id="path326" d="m214.48 523.09-10.476-8.79" stroke="#231f20" stroke-miterlimit="3.864" stroke-width=".793" fill="none"/>
      </g>
    </g>
    <path id="path328" d="m196.66 513.87-1.0299 1.2357 8.713 7.3115 1.0382-1.2298 0.56492-2.9763-6.5591-5.5043-2.7271 1.1632z" stroke="#231f20" stroke-miterlimit="3.864" stroke-width=".66075" fill="none"/>
    <path id="path330" d="m199.31 512.65 6.5591 5.5043 6.5091-7.7573-6.56-5.5043-6.5083 7.7573z" stroke="#231f20" stroke-miterlimit="3.864" stroke-width=".66075" fill="#fff"/>
    <path id="path332" d="m187.73 516.86 4.4827 1.7048s0.5116-2.2447 2.8996-1.8406m1.0099-1.2032-8.7947-3.2779" stroke="#231f20" stroke-miterlimit="3.864" stroke-width=".66075" fill="none"/>
    <path id="path334" d="m189.87 513.29 2.8063 1.0207c0.51493 0.18748 1.0149 0.10999 1.1182-0.17247 0.10249-0.28247-0.2308-0.66325-0.74573-0.85072l-2.8063-1.0207c-0.5141-0.18748-1.0149-0.10999-1.1174 0.17247-0.10332 0.28247 0.2308 0.66325 0.7449 0.85073z" stroke="#231f20" stroke-miterlimit="3.864" stroke-width=".32996" fill="#231f20"/>
    <path id="path336" d="m188 520.17 1.2065-2.778 1.8389 0.63241-0.80406 2.1456h-2.2414z" stroke="#231f20" stroke-miterlimit="3.864" stroke-width=".32996" fill="#231f20"/>
    <path id="path338" d="m191.72 518.29 1.4365-3.9461-3.3137-1.3415-1.5715 3.717 3.4487 1.5706z" stroke="#231f20" stroke-miterlimit="3.864" stroke-width=".32996" fill="#231f20"/>
    <path id="path340" d="m176.22 520.17s0.0383-0.67074-0.63158-0.80489c-0.67075-0.13332-2.0114-0.13332-2.0114-0.13332l0.53577-6.4941 3.3146-0.49827m14.559 11.073 10.804 4.2528 2.0114-3.0463-1.2073-2.3755" stroke="#231f20" stroke-miterlimit="3.864" stroke-width=".66075" fill="none"/>
    <path id="path342" stroke-linejoin="bevel" d="m201.75 522.54c0.40245 1.3023 0 2.3755 0 2.3755l-4.1186-3.9845-4.751-3.1804" stroke="#231f20" stroke-linecap="square" stroke-miterlimit="3.864" stroke-width=".66075" fill="none"/>
    <path id="path344" d="m190.24 519.9h3.8503s5.1526 2.778 6.9924 6.8583" stroke="#231f20" stroke-miterlimit="3.864" stroke-width=".66075" fill="none"/>
    <path id="path346" stroke-linejoin="bevel" d="m138.17 492.79h70.573l-0.20581-2.1264c0-3.6504-2.9588-6.6091-6.6091-6.6091h-57.221c-3.6504 0-6.6091 2.9588-6.6091 6.6091l0.0717 2.1264z" stroke="#231f20" stroke-linecap="square" stroke-miterlimit="3.864" stroke-width=".66075" fill="#fff"/>
    <path id="path348" stroke-linejoin="bevel" d="m165.01 498.2c0 1.7456 1.4156 3.1604 3.1612 3.1604s3.1612-1.4148 3.1612-3.1604c0-1.7464-1.4156-3.1612-3.1612-3.1612s-3.1612 1.4148-3.1612 3.1612z" stroke="#231f20" stroke-linecap="square" stroke-miterlimit="3.864" stroke-width=".66075" fill="none"/>
    <path id="path350" stroke-linejoin="bevel" d="m168.15 499.92h7.164v-15.862h-7.164v15.862z" stroke="#231f20" stroke-linecap="square" stroke-miterlimit="3.864" stroke-width=".66075" fill="#fff"/>
    <path id="path352" d="m170.2 490.12c-0.43828 0.43827-0.43828 1.1473 0 1.5848 0.43744 0.43827 1.1474 0.43827 1.5848 0 0.43744-0.43745 0.43744-1.1465 0-1.5848-0.43744-0.43745-1.1474-0.43745-1.5848 0" fill="#231f20"/>
    <path id="path354" d="m172.39 492.24-2.8171-2.8171" stroke="#fff" stroke-miterlimit="3.864" stroke-width=".32996" fill="none"/>
    <path id="path356" d="m169.98 486.55c-0.21164 0.58159 0.0883 1.2248 0.66908 1.4365 0.58159 0.21164 1.2248-0.0883 1.4365-0.66991 0.21164-0.58159-0.0875-1.224-0.66991-1.4356-0.58159-0.21247-1.224 0.0875-1.4356 0.66908" fill="#231f20"/>
    <path id="path358" d="m172.86 487.55-3.7437-1.3632" stroke="#fff" stroke-miterlimit="3.864" stroke-width=".32996" fill="none"/>
    <path id="path360" d="m177.02 495.3h27.777v-1.2065h-27.777v1.2065z" stroke="#231f20" stroke-miterlimit="3.864" stroke-width=".66075" fill="#fff"/>
    <path id="path362" d="m175.32 499.92h1.9731v-5.8234h-1.9731v5.8234z" stroke="#231f20" stroke-miterlimit="3.864" stroke-width=".66075" fill="#fff"/>
    <path id="path364" d="m203.19 489.6c0 0.95154 0.77157 1.7239 1.7239 1.7239 0.95154 0 1.7239-0.7724 1.7239-1.7239 0-0.95237-0.7724-1.7239-1.7239-1.7239-0.95237 0-1.7239 0.77157-1.7239 1.7239z" stroke="#231f20" stroke-miterlimit="3.864" stroke-width=".42911" fill="#fff"/>
    <path id="path366" d="m139.74 489.6c0 0.95154 0.77157 1.7239 1.7239 1.7239 0.95154 0 1.7239-0.7724 1.7239-1.7239 0-0.95237-0.7724-1.7239-1.7239-1.7239-0.95237 0-1.7239 0.77157-1.7239 1.7239z" stroke="#231f20" stroke-miterlimit="3.864" stroke-width=".42911" fill="#fff"/>
    <path id="path368" d="m182.81 447.02c0 0.34912 0.28247 0.63242 0.63159 0.63242s0.63241-0.2833 0.63241-0.63242-0.28329-0.63242-0.63241-0.63242-0.63159 0.2833-0.63159 0.63242z" stroke="#231f20" stroke-miterlimit="3.864" stroke-width=".32996" fill="none"/>
    <path id="path370" d="m176.02 481.95h12.429v-1.4431h-12.429v1.4431z" stroke="#231f20" stroke-miterlimit="3.864" stroke-width=".66075" fill="none"/>
    <path id="path372" d="m175.03 480.92h14.003v-1.7339h-14.003v1.7339z" stroke="#231f20" stroke-miterlimit="3.864" stroke-width=".66075" fill="#fff"/>
    <path id="path374" d="m173.54 479.27h15.279v-1.574h-15.279v1.574z" stroke="#231f20" stroke-miterlimit="3.864" stroke-width=".66075" fill="#fff"/>
    <path id="path376" d="m173.54 477.9h22.798v-1.5281h-22.798v1.5281z" stroke="#231f20" stroke-miterlimit="3.864" stroke-width=".66075" fill="#fff"/>
    <path id="path378" d="m162.94 476.41h34.245v-2.6205h-34.245v2.6205z" stroke="#231f20" stroke-miterlimit="3.864" stroke-width=".66075" fill="#fff"/>
    <path id="path380" d="m158.68 479.15h-1.1524v4.9077h3.7962s-1.5665-1.0574-2.173-2.4213c-0.31412-0.70658-0.47077-2.4863-0.47077-2.4863z" stroke="#231f20" stroke-miterlimit="3.864" stroke-width=".66075" fill="none"/>
    <path id="path382" d="m168.15 484.06h30.703v-2.343h-30.703v2.343z" stroke="#231f20" stroke-miterlimit="3.864" stroke-width=".66075" fill="#fff"/>
    <path id="path384" d="m162.43 466.76c0 0.91738 0.74407 1.6623 1.6623 1.6623 0.91821 0 1.6623-0.7449 1.6623-1.6623 0-0.91822-0.74407-1.6623-1.6623-1.6623-0.91821 0-1.6623 0.74406-1.6623 1.6623z" stroke="#231f20" stroke-miterlimit="3.864" stroke-width=".42911" fill="none"/>
    <path id="path386" d="m158.48 466.76c0 3.0979 2.5122 5.6101 5.6101 5.6101 3.0988 0 5.6109-2.5122 5.6109-5.6101 0-3.0988-2.5122-5.6109-5.6109-5.6109-3.0979 0-5.6101 2.5122-5.6101 5.6109z" stroke="#231f20" stroke-miterlimit="3.864" stroke-width=".66075" fill="none"/>
    <path id="path388" d="m158.29 479.07h4.2136v-29.708h-4.2136v29.708z" stroke="#231f20" stroke-miterlimit="3.864" stroke-width=".66075" fill="#fff"/>
    <path id="path390" d="m160.74 474.02-1.4073-1.0307h-3.8803v-1.6131h3.6745l1.6523-1.334-0.0392 3.9778" fill="#fff"/>
    <g id="g392" transform="matrix(.83322 0 0 .83322 26.606 85.288)">
      <g id="g394" clip-path="url(#clipPath396)">
        <path id="path400" d="m153.21 466.64h5.121v-4.774h-5.121v4.774z" fill="#231f20"/>
      </g>
    </g>
    <path id="path402" d="m160.74 474.02-1.4073-1.0307h-3.8803v-1.6131h3.6745l1.6523-1.334-0.0392 3.9778z" stroke="#231f20" stroke-miterlimit="3.864" stroke-width=".66075" fill="none"/>
    <path id="path404" d="m160.74 455.44-1.4073-1.0307h-3.8803v-1.6131h3.6745l1.6523-1.3348-0.0392 3.9786" fill="#fff"/>
    <g id="g406" transform="matrix(.83322 0 0 .83322 26.606 85.288)">
      <g id="g408" clip-path="url(#clipPath410)">
        <path id="path414" d="m153.21 444.33h5.121v-4.774h-5.121v4.774z" fill="#231f20"/>
      </g>
    </g>
    <path id="path416" d="m160.74 455.44-1.4073-1.0307h-3.8803v-1.6131h3.6745l1.6523-1.3348-0.0392 3.9786z" stroke="#231f20" stroke-miterlimit="3.864" stroke-width=".66075" fill="none"/>
    <path id="path418" d="m161.03 479.15v-29.864" stroke="#231f20" stroke-miterlimit="3.864" stroke-width=".32996" fill="none"/>
    <path id="path420" d="m172.69 470.12h16.778v-2.408h-16.778v2.408z" stroke="#231f20" stroke-miterlimit="3.864" stroke-width=".66075" fill="#fff"/>
    <path id="path422" d="m174.94 472.08h20.756v-2.408h-20.756v2.408z" stroke="#231f20" stroke-miterlimit="3.864" stroke-width=".66075" fill="#fff"/>
    <path id="path424" d="m187.84 481.72h3.9945v-13.218h-3.9945v13.218z" stroke="#231f20" stroke-miterlimit="3.864" stroke-width=".66075" fill="#fff"/>
    <path id="path426" d="m185 469.1h9.8679v-3.7962h-9.8679v3.7962z" fill="#231f20"/>
    <g id="g428" transform="matrix(.83322 0 0 .83322 26.606 85.288)">
      <g id="g430" clip-path="url(#clipPath432)">
        <path id="path436" d="m190.76 461.48v-6.44m0.793 6.44v-6.44m0.793 6.44v-6.44m0.793 6.44v-6.44m0.793 6.44v-6.44m0.794 6.44v-6.44m0.793 6.44v-6.44m0.793 6.44v-6.44m0.793 6.44v-6.44m0.793 6.44v-6.44m0.793 6.44v-6.44m0.794 6.44v-6.44m0.793 6.44v-6.44m0.793 6.44v-6.44m-9.518 6.44v-6.44" stroke="#fff" stroke-miterlimit="3.864" stroke-width=".278" fill="none"/>
      </g>
    </g>
    <path id="path438" d="m185 469.1h9.8679v-3.7962h-9.8679v3.7962z" stroke="#231f20" stroke-miterlimit="3.864" stroke-width=".16498" fill="none"/>
    <path id="path440" d="m169.57 481.72h3.8745v-9.1613h-3.8745v9.1613z" stroke="#231f20" stroke-miterlimit="3.864" stroke-width=".66075" fill="#fff"/>
    <path id="path442" d="m166.61 473.16h9.8679v-3.7953h-9.8679v3.7953z" fill="#231f20"/>
    <g id="g444" transform="matrix(.83322 0 0 .83322 26.606 85.288)">
      <g id="g446" clip-path="url(#clipPath448)">
        <path id="path452" d="m168.69 466.35v-6.44m0.793 6.44v-6.44m0.793 6.44v-6.44m0.793 6.44v-6.44m0.793 6.44v-6.44m0.794 6.44v-6.44m0.793 6.44v-6.44m0.793 6.44v-6.44m0.793 6.44v-6.44m0.793 6.44v-6.44m0.794 6.44v-6.44m0.793 6.44v-6.44m0.793 6.44v-6.44m0.793 6.44v-6.44m-9.518 6.44v-6.44" stroke="#fff" stroke-miterlimit="3.864" stroke-width=".278" fill="none"/>
      </g>
    </g>
    <path id="path454" d="m166.61 473.16h9.8679v-3.7953h-9.8679v3.7953z" stroke="#231f20" stroke-miterlimit="3.864" stroke-width=".16498" fill="none"/>
    <path id="path456" d="m151.96 545.28c0 3.9095 3.1688 7.0791 7.0791 7.0791 3.9095 0 7.0782-3.1696 7.0782-7.0791s-3.1688-7.0791-7.0782-7.0791c-3.9103 0-7.0791 3.1696-7.0791 7.0791z" stroke="#231f20" stroke-miterlimit="3.864" stroke-width=".32996" fill="#231f20"/>
    <path id="path458" d="m153.02 545.28c0 3.3229 2.6938 6.0175 6.0175 6.0175 3.3229 0 6.0167-2.6946 6.0167-6.0175s-2.6938-6.0167-6.0167-6.0167c-3.3237 0-6.0175 2.6938-6.0175 6.0167z" stroke="#fff" stroke-miterlimit="3.864" stroke-width=".5191" fill="#231f20"/>
    <path id="path460" d="m129.1 463.2c0 3.9095 3.1696 7.0791 7.0791 7.0791s7.0791-3.1696 7.0791-7.0791-3.1696-7.0791-7.0791-7.0791-7.0791 3.1696-7.0791 7.0791z" stroke="#231f20" stroke-miterlimit="3.864" stroke-width=".32996" fill="#231f20"/>
    <path id="path462" d="m130.16 463.2c0 3.3229 2.6938 6.0167 6.0175 6.0167 3.3229 0 6.0167-2.6938 6.0167-6.0167s-2.6938-6.0175-6.0167-6.0175c-3.3237 0-6.0175 2.6946-6.0175 6.0175z" stroke="#fff" stroke-miterlimit="3.864" stroke-width=".5191" fill="#231f20"/>
  </g>
<metadata><rdf:RDF><cc:Work><dc:format>image/svg+xml</dc:format><dc:type rdf:resource="http://purl.org/dc/dcmitype/StillImage"/><cc:license rdf:resource="http://creativecommons.org/licenses/publicdomain/"/><dc:publisher><cc:Agent rdf:about="http://openclipart.org/"><dc:title>Openclipart</dc:title></cc:Agent></dc:publisher><dc:title>58294main_The.Brain.in.Space-page-56-telescope-bare</dc:title><dc:date>2010-04-06T07:38:21</dc:date><dc:description>This is clipart converted and broken apart that has been released into the public domain because the document says so, and its from NASA, a USA government agency. The publication is called "The Brain in Space:"&#xD;\n&#xD;\nhttp://www.nasa.gov/audience/foreducators/topnav/materials/listbytype/The.Brain.in.Space.html</dc:description><dc:source>http://openclipart.org/detail/38233/-by-rejon-38233</dc:source><dc:creator><cc:Agent><dc:title>rejon</dc:title></cc:Agent></dc:creator><dc:subject><rdf:Bag><rdf:li>astronomy</rdf:li><rdf:li>brain</rdf:li><rdf:li>clip art</rdf:li><rdf:li>clipart</rdf:li><rdf:li>converted</rdf:li><rdf:li>government</rdf:li><rdf:li>nasa</rdf:li><rdf:li>science</rdf:li><rdf:li>space</rdf:li><rdf:li>usa</rdf:li></rdf:Bag></dc:subject></cc:Work><cc:License rdf:about="http://creativecommons.org/licenses/publicdomain/"><cc:permits rdf:resource="http://creativecommons.org/ns#Reproduction"/><cc:permits rdf:resource="http://creativecommons.org/ns#Distribution"/><cc:permits rdf:resource="http://creativecommons.org/ns#DerivativeWorks"/></cc:License></rdf:RDF></metadata></svg>
